<svg xmlns="http://www.w3.org/2000/svg" width="85.944" height="85.944" viewBox="0 0 85.944 85.944">
  <g id="brandlogo" transform="translate(1076.904 2285.346)">
    <g id="logo" transform="translate(-1076.904 -2285.346)">
      <g id="Group_4068" data-name="Group 4068" transform="translate(0 0)">
        <rect id="Rectangle_1491" data-name="Rectangle 1491" width="85.944" height="85.944" transform="translate(0 0)" fill="#004ea1"/>
      </g>
    </g>
    <g id="Group_3" data-name="Group 3" transform="translate(-1063.964 -2252.37)">
      <g id="zflogo" transform="translate(0 0)">
        <path id="Exclusion_2" data-name="Exclusion 2" d="M10,19.992a10.067,10.067,0,0,1-2.015-.2,9.94,9.94,0,0,1-3.574-1.5,10.025,10.025,0,0,1-3.622-4.4A9.95,9.95,0,0,1,.2,12.01a10.093,10.093,0,0,1,0-4.029,9.941,9.941,0,0,1,1.5-3.574A10.024,10.024,0,0,1,6.105.786,9.947,9.947,0,0,1,7.981.2,10.093,10.093,0,0,1,12.01.2a9.943,9.943,0,0,1,3.574,1.5,10.024,10.024,0,0,1,3.622,4.4,9.947,9.947,0,0,1,.582,1.876,10.093,10.093,0,0,1,0,4.029,9.942,9.942,0,0,1-1.5,3.574,10.026,10.026,0,0,1-4.4,3.622,9.945,9.945,0,0,1-1.876.582A10.066,10.066,0,0,1,10,19.992ZM2.114,5.662A9.25,9.25,0,0,0,1.3,7.733,9.026,9.026,0,0,0,17.13,15.579H2.94L6.945,5.662H2.114Zm4.53-1.222h3.7l-4,9.919H17.887a1.636,1.636,0,0,1,.107-.161v0a1.415,1.415,0,0,0,.1-.161,9,9,0,0,0-.175-8.373h-4.6v3.09h2.442V9.974H13.324v3.485H10.629V4.441H17.1l0-.005c-.014-.017-.058-.07-.1-.13s-.118-.15-.14-.176a9.132,9.132,0,0,0-3.014-2.288A8.923,8.923,0,0,0,10.018.994a9.064,9.064,0,0,0-4.007.946,9.26,9.26,0,0,0-3.1,2.5Z" transform="translate(0 0)" fill="#fff"/>
      </g>
      <path id="Path_1" data-name="Path 1" d="M18.948-138.721H16.9v-9.02h2.052Zm10.6,0H27.479l-3.754-5.667a8.182,8.182,0,0,1-.457-.749h-.025q.051.478.051,1.459v4.957H21.356v-9.02h2.21l3.614,5.491q.248.371.457.736h.025a9.551,9.551,0,0,1-.051-1.239v-4.988h1.937Zm2.42,0v-9.02H35.2q4.853,0,4.853,4.4a4.423,4.423,0,0,1-1.324,3.365,4.912,4.912,0,0,1-3.528,1.258Zm2.052-7.366v5.718h1.016a2.761,2.761,0,0,0,2.093-.793,2.989,2.989,0,0,0,.759-2.157,2.713,2.713,0,0,0-.753-2.029,2.886,2.886,0,0,0-2.112-.739Zm9.928,7.366H41.9v-9.02h2.052Zm10.417,0H52.131l-.648-2.007H48.243l-.642,2.007H45.378l3.316-9.02h2.433Zm-3.354-3.566-.978-3.032a3.916,3.916,0,0,1-.152-.811h-.051a3.411,3.411,0,0,1-.159.786l-.991,3.057Z" transform="translate(4.743 152.165)" fill="#fff"/>
      <path id="Exclusion_5" data-name="Exclusion 5" d="M41.156,1.225H0A10.007,10.007,0,0,0,.7,0H41.156V1.225Z" transform="translate(18.907 14.367)" fill="#fff"/>
    </g>
  </g>
</svg>
