<svg xmlns="http://www.w3.org/2000/svg" width="27.972" height="27.972" viewBox="0 0 27.972 27.972">
  <g id="logo" transform="translate(1076.904 2285.346)">
    <g id="logo-2" data-name="logo" transform="translate(-1076.904 -2285.346)">
      <g id="Group_4068" data-name="Group 4068">
        <rect id="Rectangle_1491" data-name="Rectangle 1491" width="27.972" height="27.972" fill="#004ea1"/>
      </g>
    </g>
    <g id="Group_3" data-name="Group 3" transform="translate(-1075.837 -2275.661)">
      <g id="zflogo">
        <path id="Exclusion_2" data-name="Exclusion 2" d="M4.3,8.6a4.331,4.331,0,0,1-.867-.087A4.3,4.3,0,0,1,.087,5.167a4.342,4.342,0,0,1,0-1.733A4.3,4.3,0,0,1,3.434.087a4.342,4.342,0,0,1,1.733,0A4.3,4.3,0,0,1,8.513,3.433a4.342,4.342,0,0,1,0,1.733A4.3,4.3,0,0,1,5.167,8.513,4.33,4.33,0,0,1,4.3,8.6ZM.909,2.436a3.979,3.979,0,0,0-.352.891A3.883,3.883,0,0,0,7.369,6.7h-6.1L2.988,2.436ZM2.858,1.91H4.449L2.727,6.177H7.7a.7.7,0,0,1,.046-.069h0a.609.609,0,0,0,.044-.069,3.872,3.872,0,0,0-.075-3.6H5.732V3.765h1.05v.526H5.732v1.5H4.573V1.91H7.355L7.31,1.854l-.06-.076A3.928,3.928,0,0,0,5.95.794,3.839,3.839,0,0,0,4.309.428,3.9,3.9,0,0,0,2.586.835,3.984,3.984,0,0,0,1.25,1.91Z" fill="#fff"/>
      </g>
      <path id="Path_1" data-name="Path 1" d="M17.779-143.861H16.9v-3.88h.883Zm4.561,0h-.891L19.834-146.3a3.519,3.519,0,0,1-.2-.322h-.011q.022.206.022.628v2.132h-.833v-3.88h.951l1.555,2.362q.107.16.2.317h.011a4.108,4.108,0,0,1-.022-.533v-2.146h.833Zm1.041,0v-3.88h1.388q2.088,0,2.088,1.891a1.9,1.9,0,0,1-.57,1.448,2.113,2.113,0,0,1-1.518.541Zm.883-3.169v2.46H24.7a1.188,1.188,0,0,0,.9-.341,1.286,1.286,0,0,0,.327-.928,1.167,1.167,0,0,0-.324-.873,1.242,1.242,0,0,0-.909-.318Zm4.271,3.169h-.883v-3.88h.883Zm4.481,0h-.962l-.279-.863H30.381l-.276.863h-.956l1.426-3.88h1.047ZM31.573-145.4l-.421-1.3a1.684,1.684,0,0,1-.066-.349h-.022a1.467,1.467,0,0,1-.068.338L30.57-145.4Z" transform="translate(-7.587 149.644)" fill="#fff"/>
      <path id="Exclusion_5" data-name="Exclusion 5" d="M17.7.527H0A4.3,4.3,0,0,0,.3,0H17.7Z" transform="translate(8.134 6.181)" fill="#fff"/>
    </g>
  </g>
</svg>
